<?xml version="1.0" standalone="no"?>
<!DOCTYPE svg PUBLIC "-//W3C//DTD SVG 20010904//EN"
 "http://www.w3.org/TR/2001/REC-SVG-20010904/DTD/svg10.dtd">
<svg version="1.0" xmlns="http://www.w3.org/2000/svg"
 width="1024.000000pt" height="308.000000pt" viewBox="0 0 1024.000000 308.000000"
 preserveAspectRatio="xMidYMid meet">

<g transform="translate(0.000000,308.000000) scale(0.100000,-0.100000)"
fill="#000000" stroke="none">
<path d="M7460 3011 c-13 -8 -73 -19 -122 -24 -10 -1 -18 -5 -18 -9 0 -4 -6
-8 -13 -8 -7 0 -44 -15 -83 -34 -140 -67 -261 -225 -284 -371 -6 -38 -18 -82
-26 -98 -14 -24 -13 -29 0 -49 9 -12 18 -48 22 -80 l7 -59 66 3 66 3 0 232 c0
215 1 232 19 243 16 10 39 -10 200 -169 100 -100 186 -181 190 -181 5 0 68 60
140 133 200 202 234 231 249 219 10 -9 13 -60 11 -234 -1 -123 1 -229 3 -235
4 -9 28 -13 75 -13 38 0 67 3 65 8 -3 4 1 34 8 67 6 33 10 83 8 110 -2 28 -5
64 -6 80 -1 17 -4 32 -7 35 -3 3 -16 32 -29 65 -53 133 -148 239 -268 295 -37
18 -68 31 -68 30 0 -1 -13 4 -30 10 -16 6 -48 14 -70 17 -22 3 -50 9 -63 14
-27 11 -23 11 -42 0z"/>
<path d="M9195 2995 c-252 -70 -435 -309 -435 -570 0 -277 198 -523 467 -580
86 -18 140 -18 228 0 269 56 458 295 458 575 0 272 -180 507 -440 575 -70 18
-210 18 -278 0z m501 -354 c48 -29 49 -62 8 -198 -58 -191 -74 -220 -149 -254
-36 -17 -69 -19 -312 -19 -169 0 -274 4 -278 10 -3 5 2 35 11 65 l18 55 242 0
243 0 29 93 c17 50 33 102 37 115 l6 22 -234 0 c-128 0 -236 3 -239 6 -4 3 3
32 14 65 l20 59 276 0 c254 0 280 -2 308 -19z m-432 -169 c3 -5 -2 -32 -11
-60 l-17 -52 -148 0 c-81 0 -148 2 -148 4 0 3 20 62 35 104 5 14 280 18 289 4z"/>
<path d="M4136 2969 c-3 -18 -6 -120 -6 -227 1 -107 -1 -196 -4 -199 -3 -3
-85 -42 -182 -87 -98 -44 -179 -85 -181 -91 -3 -10 362 -228 383 -228 16 0
384 216 384 226 0 7 -366 614 -380 630 -4 5 -10 -6 -14 -24z"/>
<path d="M5658 2944 c-36 -54 -108 -173 -119 -198 -5 -12 -28 -50 -50 -86 -85
-132 -171 -290 -166 -303 5 -14 338 -217 366 -223 17 -4 373 206 378 223 2 6
-82 50 -186 98 l-191 88 -2 220 -3 220 -27 -39z"/>
<path d="M2330 2874 c-99 -26 -180 -73 -261 -154 -119 -118 -173 -243 -173
-405 0 -262 179 -493 434 -560 73 -19 217 -19 294 1 146 38 288 146 359 275
217 390 -64 862 -512 858 -47 0 -111 -7 -141 -15z m302 -74 c213 -66 358 -266
358 -493 0 -131 -52 -250 -151 -350 -76 -76 -155 -119 -265 -142 -86 -18 -112
-18 -199 0 -213 45 -374 214 -407 426 -36 240 107 473 341 555 88 31 230 33
323 4z"/>
<path d="M2365 2658 c-9 -30 -58 -217 -67 -260 -9 -42 -15 -49 -49 -62 -22 -9
-39 -18 -39 -21 0 -3 -9 -37 -19 -75 l-20 -71 35 7 c34 6 35 6 28 -22 -4 -16
-13 -46 -21 -68 -7 -21 -13 -42 -13 -47 0 -5 124 -9 275 -9 l274 0 11 43 c6
23 15 58 21 77 16 62 22 60 -137 60 -159 0 -147 -5 -129 57 4 14 23 30 50 42
42 18 43 21 59 91 9 40 15 74 13 77 -3 2 -16 -2 -31 -8 -14 -7 -28 -10 -31 -7
-3 3 3 39 14 79 10 41 22 86 25 102 l6 27 -125 0 c-92 0 -127 -3 -130 -12z
m215 -22 c0 -2 -13 -54 -29 -116 l-30 -112 24 6 c13 3 31 9 40 12 14 6 16 3
10 -17 -18 -58 -25 -67 -54 -74 -36 -8 -44 -18 -60 -75 -7 -25 -15 -53 -17
-62 -5 -17 6 -18 140 -18 83 0 146 -4 146 -9 0 -5 -5 -32 -12 -60 l-11 -51
-244 0 c-134 0 -243 1 -243 3 0 1 9 36 20 77 26 100 26 102 -6 89 -15 -5 -28
-8 -30 -6 -2 2 1 20 7 40 7 28 18 41 43 51 37 15 38 18 81 181 40 156 30 145
135 145 49 0 90 -2 90 -4z"/>
<path d="M7228 2290 l-3 -155 -120 -5 -120 -5 85 -85 c62 -63 103 -95 152
-118 206 -100 448 -73 627 68 44 35 121 123 121 139 0 3 -43 5 -96 3 -155 -5
-144 -18 -144 156 l0 147 -118 -118 c-64 -64 -122 -117 -127 -117 -5 0 -65 55
-132 122 l-122 122 -3 -154z"/>
<path d="M4335 2164 c-99 -58 -186 -110 -192 -116 -14 -11 -17 -241 -5 -286 6
-20 33 14 188 230 180 253 198 278 192 278 -2 0 -84 -48 -183 -106z"/>
<path d="M5956 2209 c-38 -22 -80 -48 -95 -58 -14 -10 -56 -35 -93 -55 l-68
-38 0 -146 0 -147 20 25 c11 14 37 50 58 80 21 30 81 116 134 190 154 220 152
211 44 149z"/>
<path d="M2723 1248 c-18 -6 -33 -15 -33 -19 0 -5 -6 -9 -14 -9 -8 0 -32 -20
-53 -44 -65 -73 -79 -155 -43 -246 11 -28 20 -62 20 -76 0 -36 -29 -75 -67
-90 -44 -19 -83 -2 -141 60 -28 31 -50 46 -67 46 -14 0 -25 -5 -25 -11 0 -6
-58 -69 -130 -142 -71 -72 -130 -136 -130 -142 0 -46 90 -98 170 -98 75 0 125
27 195 108 49 55 62 65 90 65 44 0 92 -41 101 -84 4 -24 0 -46 -16 -76 -28
-54 -37 -144 -20 -195 16 -47 72 -111 121 -136 47 -23 135 -25 187 -3 148 61
190 256 79 373 -39 41 -100 70 -148 71 -83 0 -129 38 -129 105 0 56 41 91 116
100 76 9 111 25 152 66 44 43 62 79 69 137 18 160 -134 288 -284 240z"/>
<path d="M5628 1191 c-83 -27 -139 -63 -197 -127 -86 -94 -124 -192 -123 -319
1 -200 133 -374 330 -435 69 -22 161 -25 229 -10 203 47 362 245 363 450 0
178 -103 340 -267 418 -72 34 -86 37 -178 39 -77 2 -113 -1 -157 -16z m285
-110 c70 -34 142 -104 174 -169 25 -51 28 -68 28 -157 0 -84 -4 -107 -23 -147
-37 -74 -96 -134 -170 -170 -59 -30 -76 -33 -152 -33 -76 0 -93 3 -152 33
-245 120 -274 455 -54 607 74 51 126 65 221 62 59 -2 94 -9 128 -26z"/>
<path d="M5717 1054 c-4 -4 -7 -22 -7 -41 0 -33 0 -33 -50 -33 -44 0 -50 -3
-56 -24 -3 -13 -4 -38 -2 -57 l3 -34 83 -3 c76 -3 98 -11 72 -27 -6 -4 -47
-54 -90 -112 -71 -95 -80 -111 -80 -150 l0 -43 60 0 60 0 0 -40 0 -40 55 0 55
0 0 40 0 39 63 3 62 3 3 43 c5 64 -7 72 -99 72 -44 0 -79 2 -79 4 0 3 38 58
85 122 70 97 85 124 85 155 0 42 -10 49 -75 49 -43 0 -44 0 -47 38 -3 36 -4
37 -48 40 -25 2 -49 0 -53 -4z"/>
<path d="M4008 1146 c-82 -19 -203 -65 -233 -88 -28 -22 -31 -52 -15 -158 33
-209 150 -408 317 -541 94 -75 117 -77 200 -15 73 53 166 156 215 237 78 129
133 309 126 415 -3 42 -7 51 -37 71 -19 13 -77 37 -130 55 -87 28 -109 32
-241 34 -93 2 -165 -2 -202 -10z m297 -35 l30 -7 -39 -13 c-48 -17 -115 -76
-133 -118 -7 -18 -13 -50 -13 -71 0 -118 -83 -195 -189 -177 -92 15 -144 79
-160 197 -6 42 -8 84 -5 92 9 24 162 84 254 99 40 7 222 5 255 -2z m202 -55
c34 -16 65 -36 68 -46 7 -23 -12 -154 -31 -215 -20 -62 -96 -210 -128 -248
l-23 -28 5 54 c7 84 -23 143 -104 201 -77 55 -99 96 -89 162 8 58 42 105 95
132 58 30 122 26 207 -12z m-565 -370 c54 -23 91 -20 168 14 104 46 169 38
217 -28 60 -81 49 -178 -28 -253 -25 -25 -61 -53 -80 -61 -40 -20 -59 -12
-146 60 -73 62 -130 135 -182 237 -48 93 -51 108 -13 72 15 -14 44 -33 64 -41z"/>
<path d="M7490 661 c-79 -24 -112 -61 -90 -101 10 -18 20 -20 123 -20 119 0
137 6 137 45 0 28 -28 53 -77 71 -43 15 -57 16 -93 5z"/>
<path d="M7238 510 c-15 -20 -18 -46 -18 -142 l0 -118 75 0 c59 0 75 3 75 14
0 11 -15 16 -52 18 l-53 3 -5 125 c-5 122 -5 124 -22 100z"/>
<path d="M7688 503 c-14 -25 -18 -56 -18 -143 0 -103 1 -110 20 -110 17 0 20
7 20 39 0 24 6 44 16 52 15 12 20 10 38 -15 41 -57 63 -79 74 -75 8 3 -1 25
-23 62 -19 32 -35 63 -35 70 0 6 17 28 37 49 55 56 15 50 -46 -7 -26 -25 -51
-45 -54 -45 -3 0 -7 35 -9 78 l-3 77 -17 -32z"/>
<path d="M7535 483 c-49 -13 -70 -60 -42 -96 6 -9 33 -25 60 -36 34 -15 47
-26 47 -41 0 -27 -41 -43 -77 -29 -19 7 -28 7 -34 -3 -20 -32 98 -43 132 -13
46 42 31 87 -39 117 -26 12 -50 25 -54 31 -14 22 5 37 47 37 37 0 65 13 54 25
-8 7 -75 13 -94 8z"/>
<path d="M7428 450 c-25 -34 -26 -200 -3 -200 23 0 26 17 23 126 -3 97 -3 99
-20 74z"/>
<path d="M405 320 c-11 -17 5 -32 21 -19 7 6 11 15 8 20 -7 12 -21 11 -29 -1z"/>
<path d="M804 319 c-3 -6 -2 -15 2 -19 12 -12 38 5 30 19 -9 14 -23 14 -32 0z"/>
<path d="M260 235 l0 -75 36 0 c19 0 44 5 55 10 20 11 26 54 9 65 -7 4 -7 12
-1 23 17 31 -5 52 -54 52 l-45 0 0 -75z m73 48 c9 -9 -12 -33 -29 -33 -8 0
-14 9 -14 20 0 19 28 28 43 13z m5 -75 c3 -13 -3 -18 -22 -18 -20 0 -26 5 -26
21 0 15 5 20 22 17 13 -2 24 -11 26 -20z"/>
<path d="M470 241 c0 -54 4 -70 16 -75 27 -10 56 -7 52 7 -3 6 -11 12 -19 12
-8 0 -15 12 -17 31 -2 25 1 33 18 37 23 6 19 27 -6 27 -8 0 -14 7 -14 15 0 8
-7 15 -15 15 -12 0 -15 -14 -15 -69z"/>
<path d="M407 273 c-4 -3 -7 -30 -7 -60 0 -40 4 -53 15 -53 12 0 15 13 15 60
0 55 -6 70 -23 53z"/>
<path d="M577 262 c-24 -26 -22 -79 2 -92 28 -14 74 -13 69 3 -4 11 -8 13 -44
16 -26 2 -14 55 14 59 12 2 22 10 22 18 0 20 -44 18 -63 -4z"/>
<path d="M680 260 c-24 -24 -25 -48 -4 -78 30 -43 94 -21 94 33 0 60 -50 85
-90 45z m60 -40 c0 -23 -5 -30 -19 -30 -11 0 -23 5 -26 10 -11 18 6 50 26 50
14 0 19 -7 19 -30z"/>
<path d="M807 273 c-4 -3 -7 -30 -7 -60 0 -40 4 -53 15 -53 12 0 15 13 15 60
0 55 -6 70 -23 53z"/>
<path d="M877 273 c-4 -3 -7 -30 -7 -60 0 -40 4 -53 15 -53 11 0 15 12 15 46
0 38 3 45 18 42 12 -2 18 -15 20 -46 2 -28 7 -42 15 -39 17 6 14 96 -4 108
-16 10 -63 12 -72 2z"/>
</g>
</svg>
